<svg xmlns="http://www.w3.org/2000/svg" viewBox="0 0 1188.35 227.41"><defs><style>.cls-1{fill:#1e293b;}</style></defs><g id="Calque_2" data-name="Calque 2"><g id="Calque_4" data-name="Calque 4"><path class="cls-1" d="M655.37,23.82a83.44,83.44,0,0,1,15.36.46,82.6,82.6,0,0,1,16,3.48,140.8,140.8,0,0,1,20.89,8.1,35.78,35.78,0,0,1,3.48,1.93c3.43,2.19,4.31,5.21,2.4,8.82-1.36,2.58-3,5-4.46,7.54-2.92,5.08-5.72,10.23-7.23,15.92-1.17,4.41-2.27,8.83-4.52,12.84-1.34,2.39-2.7,4.77-4.26,7a91.45,91.45,0,0,0-9.12,17.56c-2.57,6.16-5.1,12.34-7.81,18.44-2.64,5.93-5.44,11.78-8.25,17.63a16.21,16.21,0,0,1-4.5,6,4.81,4.81,0,0,1-6.47,0c-2.72-2.15-4.36-5.12-5.94-8.11a328.37,328.37,0,0,1-13.81-31,140.45,140.45,0,0,0-9.77-19c-5.16-8.68-10.7-17.15-14.94-26.33-1.85-4-3.24-8.19-4.83-12.29-1.35-3.48-2.86-6.87-5.47-9.65-.94-1-1-1.43.16-2.23,3.06-2.11,6.12-4.23,9.36-6a96.75,96.75,0,0,1,18.72-7.94,60,60,0,0,1,15.46-2.57C648.7,24.17,651.58,24,655.37,23.82ZM641.12,82.34A12.21,12.21,0,0,0,653.45,70a12.32,12.32,0,1,0-12.33,12.37ZM695.81,53a11.19,11.19,0,1,0-11.43,11.11A11.16,11.16,0,0,0,695.81,53ZM659.75,97.09a9.26,9.26,0,0,0-9.38,9.26,9.34,9.34,0,1,0,18.68,0A9.29,9.29,0,0,0,659.75,97.09Zm24.9-9.82a4.44,4.44,0,1,0-8.88,0,4.53,4.53,0,0,0,4.49,4.38A4.42,4.42,0,0,0,684.65,87.27Zm-45.27-45.4A4.5,4.5,0,0,0,635,37.39a4.46,4.46,0,1,0,4.37,4.48Z"/><path class="cls-1" d="M531.39,81.1c.87.71,1.78,1.36,2.6,2.11,5.37,4.94,10.68,9.94,16.07,14.84,3.76,3.43,7.6,6.77,11.45,10.1,1.9,1.65,3.62,1.28,4.82-.91a2.45,2.45,0,0,0-.53-3.29c-2.63-2.52-5.34-5-7.95-7.51q-10.17-9.89-20.28-19.84a15.59,15.59,0,0,1-1.06-1.23l.23-.25c.38.27.78.51,1.14.81,5.77,4.81,11.57,9.6,17.3,14.46,4,3.36,7.85,6.84,11.8,10.22A7.83,7.83,0,0,0,569.2,102a2.24,2.24,0,0,0,2.67-.74,2.29,2.29,0,0,0,.48-2.73,8.51,8.51,0,0,0-1.45-2c-7.55-7.21-15.14-14.38-22.69-21.59-1.76-1.68-3.42-3.46-5.11-5.2a7.9,7.9,0,0,1-.61-.79l.22-.27c.63.47,1.3.9,1.9,1.41q12.24,10.31,24.47,20.62c1.6,1.35,3.16,2.74,4.75,4.09A3.15,3.15,0,0,0,578.94,93a2.67,2.67,0,0,0-1-2.72c-2.4-2.27-4.76-4.59-7.22-6.79-6.68-6-13.42-11.88-20.11-17.83-1-.87-1.87-1.84-2.8-2.77l.22-.3a7.43,7.43,0,0,1,.88.47c5.49,4.06,11,8.1,16.46,12.22,6.08,4.62,12.15,9.25,18.11,14,4.64,3.7,8.66,8,11.19,13.46a19.34,19.34,0,0,1,1.66,12.09,1.78,1.78,0,0,0,.64,1.9C608.55,127,620,137.44,631.73,147.6c9,7.79,18.21,15.28,27.31,22.93.82.68,1.32.64,2.08-.1,3.66-3.53,7.39-7,11.06-10.52a1.13,1.13,0,0,1,1.67-.2c2.74,1.88,5.29,4,6,7.39s.21,6.3-2.52,8.68c-1.6,1.39-3,3-4.58,4.44-.66.63-.61,1.08.09,1.66,6.9,5.66,13.83,11.28,20.65,17,4.47,3.76,8.83,7.66,13.16,11.59,2,1.84,3.64,4.06,3.7,6.95a7.42,7.42,0,0,1-.64,3.52c-2,3.69-5.15,6.83-9.26,6.39a10.14,10.14,0,0,1-5.65-2.48c-3.77-3.3-7.53-6.62-11.13-10.11-7.11-6.9-14.11-13.91-21.16-20.88-1.11-1.09-1.17-1.08-2.22.08-7.4,8.1-14.75,16.25-22.24,24.27-2.37,2.55-5.12,4.75-7.7,7.1s-5.8,2.53-9,1.2a10.58,10.58,0,0,1-6.33-6,6.49,6.49,0,0,1,1.22-6.93c2.23-2.52,4.68-4.87,7.11-7.21q10.47-10.08,21-20.07c1.51-1.45,3-2.92,4.54-4.32.68-.61.68-1,0-1.65-7.67-7.47-15.21-15.08-23-22.43-10.41-9.83-21-19.47-31.51-29.18-1.51-1.39-3-2.8-4.58-4.11a2.18,2.18,0,0,0-1.7-.49c-5.92,1.62-11.43.51-16.71-2.35a45.22,45.22,0,0,1-11.23-8.85q-11.72-12.36-23.3-24.84c-1.76-1.89-3.44-3.86-5.14-5.79-.24-.28-.44-.6-.65-.9Z"/><path class="cls-1" d="M685.18,171.6a34.83,34.83,0,0,0,0-4.22c-.52-4.25-2.89-7.42-6.06-10.1a8,8,0,0,0-1.36-1c-.91-.52-.69-.94-.06-1.54q9.63-9.06,19.21-18.15L729.17,106l36-34,14.43-13.59c.23-.22.51-.39,1-.81-.38,1.69-.66,3.05-1,4.39-4.23,16.48-10.86,31.88-20.79,45.77-6.23,8.72-13.38,16.7-20.55,24.66-12.19,13.51-25,26.42-37.87,39.28a29.78,29.78,0,0,1-2.31,2.19,1.46,1.46,0,0,1-1.27.23,17.91,17.91,0,0,0-11-2.42A2.07,2.07,0,0,1,685.18,171.6Z"/><path class="cls-1" d="M652.7,0c10.45.44,19,.73,27.5,2.35a128.46,128.46,0,0,1,27.63,8.72c5.07,2.24,10.06,4.64,15,7.14a23.53,23.53,0,0,1,7.43,6.29,3.77,3.77,0,0,1,.69,2.63A14.4,14.4,0,0,1,725,36.88a4.38,4.38,0,0,1-4.92.35C714,34.08,707.86,31,701.74,27.85a63.77,63.77,0,0,0-21.8-6.93c-4-.46-8-1.33-12-1.93a72.05,72.05,0,0,0-17.73-.24c-3.93.37-7.86.72-11.79,1.12a61.53,61.53,0,0,0-22.64,6.85c-6.48,3.42-13,6.73-19.49,10.15a3.57,3.57,0,0,1-4.15-.27A16.56,16.56,0,0,1,585.39,26a5.21,5.21,0,0,1,2.24-5.36A88.67,88.67,0,0,1,617.49,6.21a194.41,194.41,0,0,1,22.23-4.85C644.63.64,649.6.32,652.7,0Z"/><path class="cls-1" d="M34.77,169.62h-12C7.56,169.62,0,157.37,0,145.28V82.85C0,70.91,7.56,58.67,22.82,58.67h12c15.41,0,22.67,12.24,22.67,24.18V96.91a1.83,1.83,0,0,1-2,2l-15,.3a.81.81,0,0,1-.91-.91v-.91a70.05,70.05,0,0,0-.75-11.48C38.09,81.34,36.73,78,34.77,77h-.31c-1.36-.76-3.32-.91-5.74-.91-8,0-10.73,3.33-10.73,10.88v54.42c0,7.41,2.72,10.88,10.73,10.88,2.42,0,4.38-.15,5.74-.9h.31c2-1.06,3.47-4.09,4.23-8.62a98.1,98.1,0,0,0,.91-11.49v-.9a.8.8,0,0,1,.9-.91H55.47a1.83,1.83,0,0,1,2,2v13.91C57.44,157.37,50.18,169.62,34.77,169.62Z"/><path class="cls-1" d="M136.64,77v33.71c0,7.86-3.18,16.17-12.24,19.19l12.54,37.19c.61,1.51-.15,2.57-1.81,2.57h-13.3a1.91,1.91,0,0,1-1.82-1.36l-13.45-37.19h-6.35v36.58a1.83,1.83,0,0,1-2,2H84.34a1.83,1.83,0,0,1-2-2l-.16-107a1.83,1.83,0,0,1,2-2H117.9A18.36,18.36,0,0,1,136.64,77Zm-36.43-.91v37.64h14.21A4.56,4.56,0,0,0,118.8,109V80.59a4.52,4.52,0,0,0-4.38-4.54Z"/><path class="cls-1" d="M200.42,169.62H188.33c-15.27,0-22.67-12.4-22.67-24.34l.15-84.65a1.82,1.82,0,0,1,2-2h14.06a1.82,1.82,0,0,1,2,2l-.15,80.72c0,7.41,2.72,10.88,10.74,10.88,9.52,0,10.88-1.81,10.88-10.88V60.63a1.82,1.82,0,0,1,2-2h14.06a1.83,1.83,0,0,1,2,2l-.16,84.65C223.09,157.22,215.69,169.62,200.42,169.62Z"/><path class="cls-1" d="M279.47,152.23h1.21c5.74,0,7.71-.75,8.62-1.81a7.69,7.69,0,0,0,1.05-2.87c.16-1.67.16-3.48.16-5.75,0-2.87.3-5.74-.16-8.46V133a9.3,9.3,0,0,0-.6-2.42l-.6-1.36-31.44-22.83-.61-.45c-.15-.15-.3-.3-.3-.45l-.76-.91c-2.57-3.33-5.29-8-5.29-12.7V80.13c0-11.64,9.53-22.07,22.83-22.07h9.82A24.46,24.46,0,0,1,308.34,82.4V96.31a1.82,1.82,0,0,1-2,2h-15a.8.8,0,0,1-.9-.91v-.75a64.27,64.27,0,0,0-.76-11.19c-.6-4.38-2-7.71-3.93-8.91-1.51-.91-3.63-1.06-6.2-1.06-9.82,0-11,.6-11,8.91a42.77,42.77,0,0,0,.15,6.2v.3a7.73,7.73,0,0,0,.6,2.12l.76,1.36L301.24,117l.3.31.6.6.16.15.75,1.06c2.57,3.33,5.29,7.86,5.29,12.7v15.72a22.39,22.39,0,0,1-22.82,22.22h-9.83a24.67,24.67,0,0,1-24.94-24.49V131.37a1.83,1.83,0,0,1,2-2h13.9a1.83,1.83,0,0,1,2,2v10C268.59,150.57,270,152.08,279.47,152.23Z"/><path class="cls-1" d="M397.67,73.93a1.83,1.83,0,0,1-2,2H375.9v91.75a1.83,1.83,0,0,1-2,2H359.88a1.83,1.83,0,0,1-2-2V75.9l-20,.3a1.82,1.82,0,0,1-2-2V60.63a1.82,1.82,0,0,1,2-2H395.7a1.83,1.83,0,0,1,2,2Z"/><path class="cls-1" d="M446,138.78c0-2.87.3-5,.45-7.26a22,22,0,0,0-.45-7,64.56,64.56,0,0,0-3.17-10.28c-1.36-3.32-2.87-6.5-4.24-10.73L423.81,61.24c-.6-1.51.15-2.57,1.82-2.57h14.66A2.11,2.11,0,0,1,442.1,60l13,38.85L468.1,60a2.11,2.11,0,0,1,1.81-1.36h14.36c1.67,0,2.42,1.06,1.82,2.57l-14.82,42.32c-1.36,4.23-2.87,7.41-4.23,10.73a65.38,65.38,0,0,0-3,10.28,22,22,0,0,0-.45,7c.15,2.27.45,4.39.45,7.26v28.87a1.83,1.83,0,0,1-2,2H448a1.83,1.83,0,0,1-2-2Z"/><path class="cls-1" d="M863.48,58.52a18.35,18.35,0,0,1,18.74,18.29v33.7c0,11.64-6.8,20.56-20.71,20.56H845.79V167.5a1.82,1.82,0,0,1-2,2H829.62a1.83,1.83,0,0,1-2-2l.15-107a1.83,1.83,0,0,1,2-2ZM845.79,75.9v37.79H860a4.66,4.66,0,0,0,4.38-4.69V80.43A4.62,4.62,0,0,0,860,75.9Z"/><path class="cls-1" d="M927,167.5a1.83,1.83,0,0,1-2,2H910.63a1.82,1.82,0,0,1-2-2v-107a1.82,1.82,0,0,1,2-2H925a1.83,1.83,0,0,1,2,2Z"/><path class="cls-1" d="M1011.15,58.52c1.66,0,2.42,1.06,1.81,2.72l-34.46,91,32-.15a1.83,1.83,0,0,1,2,2V167.5a1.83,1.83,0,0,1-2,2H956.88c-1.66,0-2.42-1.05-1.81-2.72l34.16-91h-32a1.83,1.83,0,0,1-2-2V60.48a1.83,1.83,0,0,1,2-2Z"/><path class="cls-1" d="M1096.39,58.52c1.66,0,2.42,1.06,1.81,2.72l-34.46,91,32-.15a1.83,1.83,0,0,1,2,2V167.5a1.82,1.82,0,0,1-2,2h-53.66c-1.67,0-2.42-1.05-1.82-2.72l34.16-91h-32a1.83,1.83,0,0,1-2-2V60.48a1.83,1.83,0,0,1,2-2Z"/><path class="cls-1" d="M1171.81,169.31a1.84,1.84,0,0,1-2-1.51l-4.54-22.52h-18.44l-4.54,22.52a1.84,1.84,0,0,1-2,1.51h-14.51a1.82,1.82,0,0,1-2-2.42l23.58-107a1.8,1.8,0,0,1,1.82-1.51H1163a1.79,1.79,0,0,1,1.82,1.51l23.43,107a1.82,1.82,0,0,1-2,2.42Zm-21.16-41.41h10.58l-5.14-24.79Z"/></g></g></svg>